<svg width="330" height="330" viewBox="0 0 330 330" fill="none" xmlns="http://www.w3.org/2000/svg">
<path d="M165.032 329.149C255.707 329.149 329.213 255.657 329.213 165C329.213 74.343 255.707 0.851074 165.032 0.851074C74.3579 0.851074 0.851807 74.343 0.851807 165C0.851807 255.657 74.3579 329.149 165.032 329.149Z" fill="url(#paint0_linear)" stroke="white" stroke-width="1.341" stroke-miterlimit="10"/>
<path d="M143.44 179.256C135.292 186.18 125.515 189.846 114.922 189.846C107.589 189.846 100.256 188.624 93.3305 185.773C86.4048 182.922 80.7013 179.256 75.4051 173.961C70.109 168.666 66.035 162.556 63.1833 155.224C60.3315 147.893 58.7019 139.339 58.7019 129.971C58.7019 121.824 60.3315 114.085 63.1833 107.161C66.035 100.236 70.5164 94.1267 75.8125 88.8316C81.1087 83.5365 87.2196 79.4633 94.5527 76.6121C101.886 73.7609 109.626 72.1316 117.774 72.1316C123.07 72.1316 127.959 72.5389 132.848 73.7609C137.737 74.9828 142.218 76.6121 146.292 78.6487C150.366 80.6852 154.032 83.5365 157.292 86.795C160.551 90.0535 163.403 93.3121 165.44 97.3852L141.811 115.307C139.366 110.827 136.107 107.161 131.626 104.31C127.144 101.458 122.256 100.236 116.959 100.236C113.293 100.236 109.626 101.051 106.367 102.68C103.108 104.31 100.664 106.346 98.2193 109.197C95.7749 112.049 94.1453 115.307 92.9231 118.973C91.7009 122.639 90.8862 126.712 90.8862 131.193C90.8862 135.673 91.7009 139.746 92.9231 143.412C94.1453 147.078 96.1823 150.336 98.2193 152.78C100.664 155.632 103.515 157.668 106.775 158.89C110.034 160.112 113.7 160.927 117.774 160.927C127.144 160.927 135.292 157.261 142.218 149.522H122.256V126.712H169.921V188.217H143.848V179.256H143.44Z" fill="white"/>
<path d="M275.436 213.063C275.436 218.358 274.214 222.839 272.177 226.505C270.14 230.171 266.881 233.429 263.214 235.873C259.548 238.317 255.066 239.946 249.77 241.168C244.882 242.39 239.178 242.798 233.882 242.798H176.847V126.712H244.067C248.141 126.712 251.807 127.527 255.066 129.156C258.326 130.785 261.177 133.229 263.214 136.08C265.659 138.932 267.288 142.19 268.511 145.449C269.733 149.115 270.547 152.78 270.547 156.446C270.547 161.741 269.325 167.037 266.474 171.924C263.622 176.812 259.548 180.478 253.844 182.922C260.363 184.958 265.659 188.217 269.733 193.105C273.399 198.4 275.436 204.917 275.436 213.063ZM208.623 154.002V171.924H230.215C232.252 171.924 234.289 171.517 236.326 170.295C237.956 169.073 239.178 166.629 239.178 162.963C239.178 159.705 238.363 157.668 236.734 156.039C235.104 154.817 233.475 154.002 231.438 154.002H208.623ZM242.845 206.546C242.845 203.695 242.03 201.251 240.4 199.622C238.771 197.585 236.734 196.771 234.697 196.771H208.623V216.322H233.882C236.326 216.322 238.771 215.507 240.4 213.878C242.03 211.841 242.845 209.398 242.845 206.546Z" fill="white"/>
<defs>
<linearGradient id="paint0_linear" x1="48.8679" y1="281.237" x2="281.247" y2="48.8131" gradientUnits="userSpaceOnUse">
<stop stop-color="#3815D6"/>
<stop offset="0.1347" stop-color="#3826DA"/>
<stop offset="0.4023" stop-color="#3853E4"/>
<stop offset="0.7737" stop-color="#389AF4"/>
<stop offset="1" stop-color="#38C9FF"/>
</linearGradient>
</defs>
</svg>
